<?xml version="1.0" encoding="UTF-8" standalone="no"?>
<!DOCTYPE svg PUBLIC "-//W3C//DTD SVG 1.1//EN" "http://www.w3.org/Graphics/SVG/1.1/DTD/svg11.dtd">
<svg width="100%" height="100%" viewBox="0 0 974 3091" version="1.1" xmlns="http://www.w3.org/2000/svg" xmlns:xlink="http://www.w3.org/1999/xlink" xml:space="preserve" xmlns:serif="http://www.serif.com/" style="fill-rule:evenodd;clip-rule:evenodd;stroke-linejoin:round;stroke-miterlimit:2;">
    <g transform="matrix(1,0,0,1,-1285.02,-226.343)">
        <g transform="matrix(1.20257,-0.513889,0.513889,1.20257,-10336.6,1979.8)">
            <g transform="matrix(2.24495,0.282588,-0.282588,2.24495,2191.51,-1037.22)">
                <path d="M3160.75,1333.68C3170.15,1343.92 3174.39,1354.74 3171.65,1360.63C3166.31,1372.14 3089.77,2011.8 3059.2,2128.43C3060.36,2131.22 2827.6,2093.13 2827.6,2093.13C2827.6,2093.13 3053.28,1327.87 3063.26,1319.99C3068.14,1316.14 3073.88,1311.9 3082.47,1309.5C3081.48,1298.08 3079.71,1287.82 3076.69,1281.26C3065.78,1257.53 3034.51,1251.09 3015.42,1235.57C3007.77,1229.36 3030.05,1208.09 3045.98,1214.85C3061.92,1221.62 3065.22,1239.75 3080.23,1243.97C3095.25,1248.18 3109.93,1229.69 3109.26,1213.01C3108.58,1196.33 3097.7,1171.96 3104.12,1156.41C3111.41,1138.75 3133.68,1137.57 3140.45,1143.06C3147.21,1148.55 3125.67,1211.91 3147.05,1214.14C3168.73,1216.39 3168.12,1193.66 3172.4,1173.6C3176.63,1153.76 3197.19,1151.43 3211.78,1156.92C3226.38,1162.41 3173.39,1218.18 3187.84,1227.71C3202.29,1237.24 3209.02,1207.52 3223.47,1204.9C3237.92,1202.28 3251.77,1203.2 3253.86,1212.87C3255.95,1222.54 3215.08,1232.07 3204.06,1252.04C3193.04,1272.02 3189.78,1298.55 3174.48,1311.44C3163.46,1320.73 3161.92,1326.3 3160.75,1333.68Z" style="fill:rgb(35,31,32);"/>
                <path d="M3084.5,1224.99C3085,1224.62 3085.76,1224.02 3086.18,1223.55C3088.48,1220.94 3090.12,1217.3 3089.98,1213.79C3089.6,1204.38 3085.59,1192.39 3083.89,1181.13C3082.11,1169.38 3082.51,1158.2 3086.29,1149.05C3093.78,1130.9 3110.25,1122.56 3124.94,1121.11C3131.01,1120.51 3136.74,1121.1 3141.4,1122.42L3146.91,1124.5L3152.6,1128.08L3155.78,1131.28L3158.62,1135.86L3160.86,1144.13C3161.11,1146.26 3161.05,1149.12 3160.81,1152.5C3173.82,1134.19 3199.01,1131.51 3218.58,1138.87L3223.33,1141.29L3227.73,1145.1L3231.01,1149.87L3232.87,1154.77C3234.33,1160.49 3233.23,1170.4 3227.49,1181.62C3226.91,1182.74 3226.3,1183.89 3225.64,1185.07C3236.06,1183.82 3245.87,1184.43 3252.97,1186.99L3259.03,1189.85L3264.95,1194.47L3269.84,1201.02L3272.71,1208.8L3273.04,1216.46L3271.2,1223.03L3267.86,1228.53L3262.8,1233.63C3257.35,1238.12 3246.94,1243.19 3236.53,1249.15C3230.43,1252.64 3223.84,1256.11 3220.95,1261.36C3214.64,1272.8 3211.12,1286.54 3206.06,1298.33C3201.26,1309.49 3195.21,1319.19 3186.91,1326.19C3184.99,1327.8 3183.61,1329.15 3182.6,1330.38C3187.54,1337.86 3190.42,1345.2 3191.34,1351.21L3191.4,1361.27L3189.14,1368.75C3189.33,1368.35 3190.06,1366.3 3190.06,1366.3C3190.06,1366.3 3185.08,1398.17 3179.95,1436.27C3156.57,1610.23 3102.39,2039.71 3077.86,2133.32L3077.83,2132.91L3077.74,2133.77L3074.25,2140.53L3068.72,2145.26L3062.2,2147.57C3061.05,2147.76 3057.09,2147.99 3050.85,2147.29C3013.83,2143.13 2824.49,2112.16 2824.49,2112.16C2819.03,2111.27 2814.21,2108.07 2811.27,2103.39C2808.33,2098.7 2807.54,2092.98 2809.1,2087.67C2809.1,2087.67 2992.08,1467.22 3035.97,1337.38C3040.28,1324.62 3043.46,1316.18 3045.1,1312.86L3047.58,1308.71L3051.32,1304.85C3054.38,1302.43 3057.72,1299.94 3061.58,1297.64C3060.98,1294.41 3060.2,1291.57 3059.17,1289.32C3055.42,1281.17 3047.6,1276.62 3039.66,1272.14C3027.12,1265.08 3013.59,1258.94 3003.25,1250.54L2997.33,1243.37L2994.72,1234.82L2995.31,1226.12L2999.24,1216.92C3004.1,1209.07 3014.3,1200.36 3025.79,1196.52C3034.97,1193.46 3044.73,1193.37 3053.52,1197.1C3062.99,1201.12 3069.71,1207.53 3075.49,1214.55C3077.67,1217.2 3079.68,1219.92 3081.86,1222.37C3082.69,1223.31 3083.43,1224.37 3084.5,1224.99ZM3040,2126.45C3039.66,2129.43 3040.03,2132.56 3041.38,2135.82C3040.15,2132.84 3039.69,2129.62 3040.01,2126.45C3052.12,2128.12 3059.41,2128.93 3059.2,2128.43C3089.77,2011.8 3166.31,1372.14 3171.65,1360.63C3174.39,1354.74 3170.15,1343.92 3160.75,1333.68C3161.92,1326.3 3163.46,1320.73 3174.48,1311.44C3189.78,1298.55 3193.04,1272.02 3204.06,1252.04C3215.08,1232.07 3255.95,1222.54 3253.86,1212.87C3251.77,1203.2 3237.92,1202.28 3223.47,1204.9C3209.02,1207.52 3202.29,1237.24 3187.84,1227.71C3173.39,1218.18 3226.38,1162.41 3211.78,1156.92C3197.19,1151.43 3176.63,1153.76 3172.4,1173.6C3168.12,1193.66 3168.73,1216.39 3147.05,1214.14C3125.67,1211.91 3147.21,1148.55 3140.45,1143.06C3133.68,1137.57 3111.41,1138.75 3104.12,1156.41C3097.7,1171.96 3108.58,1196.33 3109.26,1213.01C3109.93,1229.69 3095.25,1248.18 3080.23,1243.97C3065.22,1239.75 3061.92,1221.62 3045.98,1214.85C3030.05,1208.09 3007.77,1229.36 3015.42,1235.57C3034.51,1251.09 3065.78,1257.53 3076.69,1281.26C3079.71,1287.82 3081.48,1298.08 3082.47,1309.5C3073.88,1311.9 3068.14,1316.14 3063.26,1319.99C3053.28,1327.87 2827.6,2093.13 2827.6,2093.13C2827.6,2093.13 2984.46,2118.8 3040,2126.45Z" style="fill:rgb(35,31,32);"/>
            </g>
            <g transform="matrix(2.24495,0.282588,-0.282588,2.24495,2191.51,-1037.22)">
                <g transform="matrix(0.812835,0,0,0.812835,587.247,187.914)">
                    <path d="M2987.28,1288.89C2977.87,1281.25 3005.28,1255.08 3024.89,1263.4C3044.5,1271.73 3048.55,1294.04 3067.03,1299.22C3085.5,1304.41 3103.56,1281.66 3102.73,1261.13C3101.9,1240.61 3088.51,1210.63 3096.41,1191.51C3105.38,1169.77 3132.78,1168.33 3141.1,1175.08C3149.43,1181.83 3122.93,1259.79 3149.23,1262.52C3175.9,1265.29 3175.15,1237.33 3180.41,1212.65C3185.62,1188.24 3210.91,1185.38 3228.87,1192.13C3246.82,1198.88 3181.63,1267.5 3199.41,1279.22C3217.18,1290.94 3225.46,1254.38 3243.24,1251.16C3261.02,1247.93 3278.06,1249.07 3280.63,1260.96C3283.2,1272.86 3232.91,1284.58 3219.36,1309.15C3205.81,1333.73 3201.8,1366.37 3182.98,1382.23C3164.15,1398.09 3167.81,1405.15 3163.94,1421.53C3160.06,1437.91 3145.94,1482.19 3145.94,1482.19L3069.51,1463.1C3069.51,1463.1 3076.09,1374.3 3062.67,1345.1C3049.25,1315.91 3010.77,1307.98 2987.28,1288.89Z" style="fill:rgb(233,199,181);"/>
                </g>
                <g transform="matrix(1,0,0,1,6.72407,-129.33)">
                    <path d="M2820.88,2222.46C2820.88,2222.46 3046.55,1457.2 3056.54,1449.32C3066.53,1441.43 3080.17,1431.87 3114.58,1440C3148.99,1448.14 3170.27,1478.45 3164.93,1489.96C3159.58,1501.47 3083.05,2141.13 3052.47,2257.76C3053.63,2260.55 2820.88,2222.46 2820.88,2222.46Z" style="fill:rgb(36,112,80);"/>
                </g>
            </g>
        </g>
    </g>
</svg>
