<?xml version="1.0" encoding="UTF-8" standalone="no"?><!DOCTYPE svg PUBLIC "-//W3C//DTD SVG 1.1//EN" "http://www.w3.org/Graphics/SVG/1.1/DTD/svg11.dtd"><svg width="100%" height="100%" viewBox="0 0 2268 1276" version="1.1" xmlns="http://www.w3.org/2000/svg" xmlns:xlink="http://www.w3.org/1999/xlink" xml:space="preserve" xmlns:serif="http://www.serif.com/" style="fill-rule:evenodd;clip-rule:evenodd;stroke-linecap:round;stroke-linejoin:round;stroke-miterlimit:1.5;"><g id="wall"><rect x="-0" y="0" width="2267.72" height="996.801" style="fill:#e4dac2;"/><g><path d="M1802.25,0c-12.262,32.397 22.583,84.624 76.453,59.106c53.87,-25.518 59.829,-6.869 63.044,11.76c3.215,18.629 11.606,55.247 40.775,50.778c29.17,-4.47 39.285,-9.567 49.949,-23.524c10.665,-13.957 15.997,-7.919 24.387,-4.077c8.39,3.842 6.9,4.626 3.058,21.563c-3.842,16.937 7.92,39.598 19.525,23.523c11.605,-16.074 4.705,-53.241 22.505,-54.182c17.799,-0.941 51.047,-42.041 70.65,-14.081c19.603,27.96 -30.973,109.429 4.783,113.271c35.757,3.842 53.086,-43.753 67.435,-30.894c14.35,12.86 -16.536,129.221 22.902,117.773l-0,-271.016l-465.466,0Z" style="fill:#cac1ad;"/><ellipse cx="2075.68" cy="178.063" rx="12.421" ry="12.421" style="fill:#cac1ad;"/><circle cx="2157.54" cy="196.695" r="6.211" style="fill:#cac1ad;"/></g></g><g id="spuder"><g><path d="M192.739,280.338c4.379,-11.313 16.871,-12.445 20.987,-5.243" style="fill:none;stroke:#231f20;stroke-width:5.2px;"/><path d="M195.857,284.612c8.985,-8.15 20.66,-3.565 21.112,4.717" style="fill:none;stroke:#231f20;stroke-width:5.2px;"/><path d="M193.723,290.405c11.004,-5.105 20.784,2.75 18.748,10.791" style="fill:none;stroke:#231f20;stroke-width:5.2px;"/><path d="M188.365,295.01c12.118,-0.561 18.197,10.41 13.27,17.083" style="fill:none;stroke:#231f20;stroke-width:5.2px;"/></g><g><g><path d="M81.079,-34.949c22.126,16.294 39.835,16.39 56.888,14.082c15.524,24.155 33.443,35.533 47.283,44.524c-5.434,28.828 1.099,44.99 17.717,63.282c-20.904,19.179 -24.17,38.892 -18.451,64.471c-33.053,7.93 -36.477,32.362 -44.177,42.045c-24.981,-0.996 -43.713,5.247 -59.26,15.371c-21.134,-11.388 -38.978,-17.736 -55.392,-13.303c-25.521,1.789 -38.981,-22.048 -50.961,-49.032c-8.656,-4.199 -13.617,-25.027 -15.534,-59.552l13.496,-55.767c20.02,-6.357 31.973,-24.816 41.869,-46.359c22.174,2.697 44.348,-3.926 66.522,-19.762Z" style="fill:none;stroke:#fff;stroke-width:7.76px;"/><path d="M60.376,-20.291c14.973,11.564 26.957,11.633 38.496,9.994c10.506,17.144 22.632,25.219 31.998,31.6c-3.677,20.46 0.744,31.93 11.989,44.913c-14.146,13.611 -16.356,27.602 -12.486,45.756c-22.367,5.629 -24.684,22.968 -29.895,29.841c-16.905,-0.707 -29.581,3.724 -40.102,10.909c-14.302,-8.083 -26.377,-12.588 -37.485,-9.442c-17.27,1.27 -26.379,-15.647 -34.485,-34.799c-5.858,-2.98 -9.215,-17.762 -10.513,-42.265l9.133,-39.579c13.548,-4.512 21.637,-17.613 28.334,-32.903c15.005,1.915 30.011,-2.786 45.016,-14.025Z" style="fill:none;stroke:#fff;stroke-width:7.76px;"/><path d="M210.416,169.878l-194.252,-147.214" style="fill:none;stroke:#fff;stroke-width:7.76px;"/><path d="M232.15,22.664l-215.986,0" style="fill:none;stroke:#fff;stroke-width:7.76px;"/><path d="M16.164,22.664l144.213,196.748" style="fill:none;stroke:#fff;stroke-width:7.76px;"/><path d="M88.271,238.618l-72.107,-215.954l9.765,215.449" style="fill:none;stroke:#fff;stroke-width:7.76px;"/><path d="M226.59,96.72l-210.426,-74.056" style="fill:none;stroke:#fff;stroke-width:7.76px;"/><path d="M42.787,-2.095c9.669,7.121 17.409,7.163 24.861,6.154c6.785,10.557 14.616,15.529 20.664,19.459c-2.374,12.598 0.481,19.661 7.743,27.655c-9.136,8.382 -10.563,16.997 -8.064,28.176c-14.444,3.466 -15.941,14.143 -19.306,18.375c-10.918,-0.435 -19.104,2.293 -25.898,6.718c-9.237,-4.977 -17.035,-7.752 -24.208,-5.814c-11.153,0.782 -17.036,-9.636 -22.271,-21.429c-3.783,-1.835 -5.952,-10.937 -6.789,-26.026l5.898,-24.371c8.749,-2.778 13.973,-10.845 18.298,-20.261c9.69,1.179 19.381,-1.715 29.072,-8.636Z" style="fill:none;stroke:#fff;stroke-width:7.76px;"/></g><path d="M185.949,153.923l0,130.986" style="fill:none;stroke:#fff;stroke-width:7.76px;"/><g><path d="M170.414,280.338c-4.38,-11.313 -16.872,-12.445 -20.987,-5.243" style="fill:none;stroke:#231f20;stroke-width:5.2px;"/><path d="M167.295,284.612c-8.984,-8.15 -20.659,-3.565 -21.111,4.717" style="fill:none;stroke:#231f20;stroke-width:5.2px;"/><path d="M169.429,290.405c-11.004,-5.105 -20.783,2.75 -18.748,10.791" style="fill:none;stroke:#231f20;stroke-width:5.2px;"/><path d="M174.787,295.01c-12.118,-0.561 -18.197,10.41 -13.27,17.083" style="fill:none;stroke:#231f20;stroke-width:5.2px;"/></g><circle cx="181.195" cy="289.663" r="18.646" style="fill:#231f20;"/><circle cx="172.352" cy="300.226" r="11.867" style="fill:#4b4342;"/></g></g><g id="floor"><rect x="-129.977" y="964.832" width="2527.67" height="466.927" style="fill:#502f15;"/><g id="floor-" serif:id="floor?"><g><rect x="-215.58" y="972.752" width="283.465" height="48.098" style="fill:#86502b;"/><rect x="-73.848" y="1030.16" width="283.465" height="48.098" style="fill:#86502b;"/><rect x="81.285" y="972.752" width="283.465" height="48.098" style="fill:#86502b;"/><rect x="223.017" y="1030.16" width="283.465" height="48.098" style="fill:#86502b;"/><rect x="519.882" y="1030.16" width="283.465" height="48.098" style="fill:#86502b;"/><rect x="675.015" y="972.752" width="283.465" height="48.098" style="fill:#86502b;"/><rect x="816.747" y="1030.16" width="283.465" height="48.098" style="fill:#86502b;"/><rect x="971.88" y="972.752" width="283.465" height="48.098" style="fill:#86502b;"/><rect x="1113.61" y="1030.16" width="283.465" height="48.098" style="fill:#86502b;"/><rect x="1268.75" y="972.752" width="283.465" height="48.098" style="fill:#86502b;"/><rect x="1410.48" y="1030.16" width="283.465" height="48.098" style="fill:#86502b;"/><rect x="1565.61" y="972.752" width="283.465" height="48.098" style="fill:#86502b;"/><rect x="1707.34" y="1030.16" width="283.465" height="48.098" style="fill:#86502b;"/><rect x="1862.48" y="972.752" width="283.465" height="48.098" style="fill:#86502b;"/><rect x="2004.21" y="1030.16" width="283.465" height="48.098" style="fill:#86502b;"/><rect x="2159.34" y="972.752" width="283.465" height="48.098" style="fill:#86502b;"/></g><g><rect x="-215.58" y="1089.87" width="283.465" height="48.098" style="fill:#86502b;"/><rect x="-73.848" y="1147.27" width="283.465" height="48.098" style="fill:#86502b;"/><rect x="81.285" y="1089.87" width="283.465" height="48.098" style="fill:#86502b;"/><rect x="223.017" y="1147.27" width="283.465" height="48.098" style="fill:#86502b;"/><rect x="378.15" y="1089.87" width="283.465" height="48.098" style="fill:#86502b;"/><rect x="519.882" y="1147.27" width="283.465" height="48.098" style="fill:#86502b;"/><rect x="675.015" y="1089.87" width="283.465" height="48.098" style="fill:#86502b;"/><rect x="816.747" y="1147.27" width="283.465" height="48.098" style="fill:#86502b;"/><rect x="971.88" y="1089.87" width="283.465" height="48.098" style="fill:#86502b;"/><rect x="1113.61" y="1147.27" width="283.465" height="48.098" style="fill:#86502b;"/><rect x="1268.75" y="1089.87" width="283.465" height="48.098" style="fill:#86502b;"/><rect x="1410.48" y="1147.27" width="283.465" height="48.098" style="fill:#86502b;"/><rect x="1565.61" y="1089.87" width="283.465" height="48.098" style="fill:#86502b;"/><rect x="1707.34" y="1147.27" width="283.465" height="48.098" style="fill:#86502b;"/><rect x="1862.48" y="1089.87" width="283.465" height="48.098" style="fill:#86502b;"/><rect x="2004.21" y="1147.27" width="283.465" height="48.098" style="fill:#86502b;"/><rect x="2159.34" y="1089.87" width="283.465" height="48.098" style="fill:#86502b;"/></g><g><rect x="-215.58" y="1206.98" width="283.465" height="48.098" style="fill:#86502b;"/><rect x="-73.848" y="1264.39" width="283.465" height="48.098" style="fill:#86502b;"/><rect x="81.285" y="1206.98" width="283.465" height="48.098" style="fill:#86502b;"/><rect x="223.017" y="1264.39" width="283.465" height="48.098" style="fill:#86502b;"/><rect x="378.15" y="1206.98" width="283.465" height="48.098" style="fill:#86502b;"/><rect x="519.882" y="1264.39" width="283.465" height="48.098" style="fill:#86502b;"/><rect x="675.015" y="1206.98" width="283.465" height="48.098" style="fill:#86502b;"/><rect x="816.747" y="1264.39" width="283.465" height="48.098" style="fill:#86502b;"/><rect x="971.88" y="1206.98" width="283.465" height="48.098" style="fill:#86502b;"/><rect x="1113.61" y="1264.39" width="283.465" height="48.098" style="fill:#86502b;"/><rect x="1268.75" y="1206.98" width="283.465" height="48.098" style="fill:#86502b;"/><rect x="1410.48" y="1264.39" width="283.465" height="48.098" style="fill:#86502b;"/><rect x="1565.61" y="1206.98" width="283.465" height="48.098" style="fill:#86502b;"/><rect x="1707.34" y="1264.39" width="283.465" height="48.098" style="fill:#86502b;"/><rect x="1862.48" y="1206.98" width="283.465" height="48.098" style="fill:#86502b;"/><rect x="2004.21" y="1264.39" width="283.465" height="48.098" style="fill:#86502b;"/><rect x="2159.34" y="1206.98" width="283.465" height="48.098" style="fill:#86502b;"/></g></g></g><g id="shelf-back" serif:id="shelf back"><g id="shelf"><path d="M553.531,1072.74l-0,-942.658l505.513,-0c-0.048,-0.548 -0.073,-1.103 -0.073,-1.664c-0,-10.274 8.341,-18.616 18.616,-18.616c4.553,0 8.727,1.639 11.964,4.358c-2.304,-3.099 -3.668,-6.937 -3.668,-11.091c0,-10.275 8.342,-18.616 18.616,-18.616c6.605,-0 12.411,3.447 15.716,8.638c-0.979,-2.696 -1.512,-5.606 -1.512,-8.638c-0,-13.991 11.358,-25.35 25.349,-25.35c13.991,0 25.35,11.359 25.35,25.35c-0,3.032 -0.534,5.942 -1.513,8.638c3.305,-5.191 9.111,-8.638 15.716,-8.638c10.274,-0 18.616,8.341 18.616,18.616c-0,4.154 -1.364,7.992 -3.667,11.091c3.236,-2.719 7.41,-4.358 11.963,-4.358c10.275,0 18.617,8.342 18.617,18.616c-0,0.561 -0.025,1.116 -0.074,1.664l505.514,-0l-0,942.658l-29.834,-0l-0,-19.34l-1121.38,0l-0,19.34l-29.834,-0Z" style="fill:#231f20;"/><path d="M1048.29,117.41c4.024,-10.689 13.735,-18.602 25.437,-20.043c2.685,-14.55 15.449,-25.586 30.77,-25.586c1.226,0 2.435,0.071 3.623,0.208c5.166,-14.871 19.31,-25.557 35.93,-25.557c16.62,-0 30.764,10.686 35.93,25.557c1.189,-0.137 2.398,-0.208 3.623,-0.208c15.321,0 28.086,11.036 30.77,25.586c11.702,1.441 21.413,9.354 25.438,20.043l494.761,0c7,0 12.674,5.675 12.674,12.675l0,942.658c0,7 -5.674,12.674 -12.674,12.674l-29.834,0c-7,0 -12.675,-5.674 -12.675,-12.674l0,-6.665l-1096.03,-0l-0,6.665c-0,7 -5.675,12.674 -12.674,12.674l-29.834,0c-7,0 -12.675,-5.674 -12.675,-12.674l0,-942.658c0,-7 5.675,-12.675 12.675,-12.675l494.761,0Zm-494.761,955.333l29.834,-0l-0,-19.34l1121.38,0l-0,19.34l29.834,-0l-0,-942.658l-505.514,-0c0.049,-0.548 0.074,-1.103 0.074,-1.664c-0,-10.274 -8.342,-18.616 -18.617,-18.616c-4.553,0 -8.727,1.639 -11.963,4.358c2.303,-3.099 3.667,-6.937 3.667,-11.091c-0,-10.275 -8.342,-18.616 -18.616,-18.616c-6.605,-0 -12.411,3.447 -15.716,8.638c0.979,-2.696 1.513,-5.606 1.513,-8.638c-0,-13.991 -11.359,-25.35 -25.35,-25.35c-13.991,0 -25.349,11.359 -25.349,25.35c-0,3.032 0.533,5.942 1.512,8.638c-3.305,-5.191 -9.111,-8.638 -15.716,-8.638c-10.274,-0 -18.616,8.341 -18.616,18.616c0,4.154 1.364,7.992 3.668,11.091c-3.237,-2.719 -7.411,-4.358 -11.964,-4.358c-10.275,0 -18.616,8.342 -18.616,18.616c-0,0.561 0.025,1.116 0.073,1.664l-505.513,-0l-0,942.658Z" style="fill:#231f20;"/></g><rect x="583.365" y="164.539" width="1121.38" height="672.887" style="fill:#605857;"/><rect x="583.365" y="164.539" width="1121.38" height="219.697" style="fill:#4d4745;"/><g><rect x="553.531" y="301.952" width="29.834" height="770.79" style="fill:#484342;"/><path d="M593.992,301.952l0,770.791c0,5.869 -4.758,10.628 -10.627,10.628l-29.834,-0c-5.87,-0 -10.628,-4.759 -10.628,-10.628l-0,-770.791c-0,-5.869 4.758,-10.627 10.628,-10.627l29.834,-0c5.869,-0 10.627,4.758 10.627,10.627Zm-10.627,0l-29.834,0l-0,770.791l29.834,-0l-0,-770.791Z" style="fill:#231f20;"/><rect x="1704.74" y="301.952" width="29.834" height="770.79" style="fill:#484342;"/><path d="M1745.2,301.952l-0,770.791c-0,5.869 -4.759,10.628 -10.628,10.628l-29.834,-0c-5.87,-0 -10.628,-4.759 -10.628,-10.628l-0,-770.791c-0,-5.869 4.758,-10.627 10.628,-10.627l29.834,-0c5.869,-0 10.628,4.758 10.628,10.627Zm-10.628,0l-29.834,0l-0,770.791l29.834,-0l-0,-770.791Z" style="fill:#231f20;"/><rect x="578.928" y="864.26" width="1125.81" height="189.143" style="fill:#6a6261;"/><path d="M1715.37,864.26l-0,189.143c-0,5.87 -4.759,10.628 -10.628,10.628l-1125.81,0c-5.869,0 -10.627,-4.758 -10.627,-10.628l-0,-189.143c-0,-5.869 4.758,-10.627 10.627,-10.627l1125.81,-0c5.869,-0 10.628,4.758 10.628,10.627Zm-10.628,0l-1125.81,0l0,189.143l1125.81,0l-0,-189.143Z" style="fill:#231f20;"/></g><g><g><rect x="1345.43" y="884.74" width="338.195" height="154.459" style="fill:#817979;"/><rect x="1371.39" y="909.869" width="286.276" height="104.201" style="fill:#6a6261;"/><ellipse cx="1514.53" cy="934.207" rx="14.041" ry="13.78" style="fill:#484342;"/></g><g><rect x="605.104" y="884.74" width="338.195" height="154.459" style="fill:#817979;"/><rect x="631.063" y="909.869" width="286.276" height="104.201" style="fill:#6a6261;"/><ellipse cx="774.201" cy="934.207" rx="14.041" ry="13.78" style="fill:#484342;"/></g><g><rect x="972.736" y="885.442" width="338.195" height="154.459" style="fill:#817979;"/><rect x="998.696" y="910.571" width="286.276" height="104.201" style="fill:#6a6261;"/><ellipse cx="1141.83" cy="934.909" rx="14.041" ry="13.78" style="fill:#484342;"/></g></g></g></svg>