<?xml version="1.0" encoding="UTF-8" standalone="no"?>
<!DOCTYPE svg PUBLIC "-//W3C//DTD SVG 1.1//EN" "http://www.w3.org/Graphics/SVG/1.1/DTD/svg11.dtd">
<svg width="100%" height="100%" viewBox="0 0 326 180" version="1.1" xmlns="http://www.w3.org/2000/svg" xmlns:xlink="http://www.w3.org/1999/xlink" xml:space="preserve" xmlns:serif="http://www.serif.com/" style="fill-rule:evenodd;clip-rule:evenodd;stroke-linejoin:round;stroke-miterlimit:2;">
    <g transform="matrix(1,0,0,1,-837.297,-1090.31)">
        <g transform="matrix(-1.9014,1.22652,1.22652,1.9014,4920.6,-4902.28)">
            <path d="M2843.03,1341.51C2847.04,1355.99 2875.67,1356.45 2924.84,1344.27C2974.02,1332.09 2992.96,1318.03 2990.52,1308.06C2988.08,1298.08 2931.51,1277.29 2902.81,1285.58C2874.1,1293.88 2836.92,1319.43 2843.03,1341.51Z" style="fill:rgb(102,82,70);"/>
            <path d="M2842.61,1341.63C2844.25,1347.56 2849.89,1351.26 2859.33,1352.68C2873.2,1354.78 2895.37,1352.03 2924.95,1344.7C2954.54,1337.37 2973.21,1329.35 2982.89,1321.95C2989.51,1316.89 2991.95,1312.06 2990.95,1307.95C2990.64,1306.69 2989.53,1305.25 2987.73,1303.73C2985.14,1301.55 2981.11,1299.17 2976.11,1296.83C2956.75,1287.78 2922.86,1279.33 2902.68,1285.16C2885.39,1290.15 2865.04,1301.39 2852.85,1314.37C2844.63,1323.12 2840.13,1332.66 2842.61,1341.63ZM2843.03,1341.51C2836.92,1319.43 2874.1,1293.88 2902.81,1285.58C2931.51,1277.29 2988.08,1298.08 2990.52,1308.06C2992.96,1318.03 2974.02,1332.09 2924.84,1344.27C2875.67,1356.45 2847.04,1355.99 2843.03,1341.51Z" style="fill:rgb(35,31,32);"/>
        </g>
    </g>
</svg>
