<?xml version="1.0" encoding="UTF-8" standalone="no"?>
<!DOCTYPE svg PUBLIC "-//W3C//DTD SVG 1.1//EN" "http://www.w3.org/Graphics/SVG/1.1/DTD/svg11.dtd">
<svg width="100%" height="100%" viewBox="0 0 340 153" version="1.1" xmlns="http://www.w3.org/2000/svg" xmlns:xlink="http://www.w3.org/1999/xlink" xml:space="preserve" xmlns:serif="http://www.serif.com/" style="fill-rule:evenodd;clip-rule:evenodd;stroke-linejoin:round;stroke-miterlimit:2;">
    <g transform="matrix(1,0,0,1,-1682.23,-1049.39)">
        <g transform="matrix(2.09206,0.861943,-0.861943,2.09206,-3108.06,-4139.76)">
            <path d="M2843.03,1341.51C2847.04,1355.99 2875.67,1356.45 2924.84,1344.27C2974.02,1332.09 2992.96,1318.03 2990.52,1308.06C2988.08,1298.08 2931.51,1277.29 2902.81,1285.58C2874.1,1293.88 2836.92,1319.43 2843.03,1341.51Z" style="fill:rgb(102,82,70);"/>
            <path d="M2842.61,1341.63C2840.13,1332.66 2844.63,1323.12 2852.85,1314.37C2865.04,1301.39 2885.39,1290.15 2902.68,1285.16C2922.86,1279.33 2956.75,1287.78 2976.11,1296.83C2981.11,1299.17 2985.14,1301.55 2987.73,1303.73C2989.53,1305.25 2990.64,1306.69 2990.95,1307.95C2991.95,1312.06 2989.51,1316.89 2982.89,1321.95C2973.21,1329.35 2954.54,1337.37 2924.95,1344.7C2895.37,1352.03 2873.2,1354.78 2859.33,1352.68C2849.89,1351.26 2844.25,1347.56 2842.61,1341.63ZM2843.03,1341.51C2847.04,1355.99 2875.67,1356.45 2924.84,1344.27C2974.02,1332.09 2992.96,1318.03 2990.52,1308.06C2988.08,1298.08 2931.51,1277.29 2902.81,1285.58C2874.1,1293.88 2836.92,1319.43 2843.03,1341.51Z" style="fill:rgb(35,31,32);"/>
        </g>
    </g>
</svg>
