<?xml version="1.0" encoding="UTF-8" standalone="no"?>
<!DOCTYPE svg PUBLIC "-//W3C//DTD SVG 1.1//EN" "http://www.w3.org/Graphics/SVG/1.1/DTD/svg11.dtd">
<svg width="100%" height="100%" viewBox="0 0 3544 3544" version="1.1" xmlns="http://www.w3.org/2000/svg" xmlns:xlink="http://www.w3.org/1999/xlink" xml:space="preserve" xmlns:serif="http://www.serif.com/" style="fill-rule:evenodd;clip-rule:evenodd;stroke-linecap:round;stroke-linejoin:round;stroke-miterlimit:1.5;">
    <g transform="matrix(2.20259,-0.517934,0.517934,2.20259,-2431.54,-1814.99)">
        <path d="M1211.38,1542.82C1210.77,1529.99 1208.49,1513.72 1205.5,1496.88C1197.6,1452.41 1184.78,1403.9 1184.78,1403.9C1219.3,1373.43 1309.32,1363.2 1362.23,1393.74C1362.23,1393.74 1339.73,1443.93 1332.32,1491.47C1330.39,1503.81 1329.49,1515.97 1330.25,1527.03C1352.97,1504.67 1374.94,1461.34 1404.5,1471.38C1437.4,1482.55 1416.67,1540.8 1355.67,1548.57C1294.66,1556.33 1181.24,1564.12 1149.77,1544.14C1118.3,1524.16 1135.07,1470.57 1162.91,1489.05C1190.93,1507.63 1175.46,1539.89 1207.92,1542.55C1209.05,1542.64 1210.21,1542.73 1211.38,1542.82Z" style="fill:rgb(36,34,34);stroke:rgb(35,31,32);stroke-width:39.36px;"/>
        <path d="M1211.47,1544.83C1209.87,1498.82 1184.78,1403.9 1184.78,1403.9C1219.3,1373.43 1309.32,1363.2 1362.23,1393.74C1362.23,1393.74 1322.33,1482.76 1331.29,1536C1315.09,1547.02 1306.22,1548.61 1276.4,1548.61C1246.58,1548.61 1230.45,1551 1211.47,1544.83Z" style="fill:rgb(36,34,34);"/>
        <path d="M1332.32,1491.47C1329.86,1507.25 1329.06,1522.73 1331.29,1536C1315.09,1547.02 1306.22,1548.61 1276.4,1548.61C1246.58,1548.61 1230.45,1551 1211.47,1544.83C1211.01,1531.71 1208.65,1514.62 1205.5,1496.88C1244.61,1489.54 1293.28,1488.41 1332.32,1491.47Z" style="fill:rgb(132,39,29);"/>
        <path d="M1162.91,1489.05C1135.07,1470.57 1118.3,1524.16 1149.77,1544.14C1181.24,1564.12 1294.66,1556.33 1355.67,1548.57C1416.67,1540.8 1437.4,1482.55 1404.5,1471.38C1367.87,1458.94 1342.9,1528.43 1313.71,1538.45C1292.69,1545.66 1240.38,1545.21 1207.92,1542.55C1175.46,1539.89 1190.93,1507.63 1162.91,1489.05Z" style="fill:rgb(36,34,34);"/>
    </g>
</svg>
