<?xml version="1.0" encoding="UTF-8" standalone="no"?>
<!DOCTYPE svg PUBLIC "-//W3C//DTD SVG 1.1//EN" "http://www.w3.org/Graphics/SVG/1.1/DTD/svg11.dtd">
<svg width="100%" height="100%" viewBox="0 0 849 312" version="1.1" xmlns="http://www.w3.org/2000/svg" xmlns:xlink="http://www.w3.org/1999/xlink" xml:space="preserve" xmlns:serif="http://www.serif.com/" style="fill-rule:evenodd;clip-rule:evenodd;stroke-linejoin:round;stroke-miterlimit:2;">
    <g transform="matrix(1,0,0,1,-944.871,-1966.6)">
        <g transform="matrix(2.16906,0.644062,-0.644062,2.16906,-3784.16,-3520.85)">
            <path d="M2716.57,1804.77C2731.13,1835.13 2788.33,1838.4 2824.75,1832.27C2861.18,1826.14 2888.82,1811.78 2915.72,1804.15C2942.61,1796.53 2974.41,1794.28 3004.57,1778.76C3034.73,1763.23 3083.62,1728.17 3074.36,1693.79C3065.1,1659.4 2979.24,1646.61 2884.67,1673.36C2790.1,1700.12 2694.1,1757.92 2716.57,1804.77Z" style="fill:rgb(62,0,19);"/>
        </g>
        <g transform="matrix(2.16906,0.644062,-0.644062,2.16906,-3784.16,-3520.85)">
            <path d="M2803.14,1834.58C2816.56,1801.81 2845.73,1762.99 2901.08,1746.89C2960.28,1729.68 2991.21,1750.47 3008.03,1776.93C3006.86,1777.57 3005.7,1778.17 3004.57,1778.76C2974.41,1794.28 2942.61,1796.53 2915.72,1804.15C2888.82,1811.78 2861.18,1826.14 2824.75,1832.27C2818.11,1833.39 2810.78,1834.19 2803.14,1834.58Z" style="fill:rgb(193,69,62);"/>
        </g>
    </g>
</svg>
