<?xml version="1.0" encoding="UTF-8" standalone="no"?>
<!DOCTYPE svg PUBLIC "-//W3C//DTD SVG 1.1//EN" "http://www.w3.org/Graphics/SVG/1.1/DTD/svg11.dtd">
<svg width="100%" height="100%" viewBox="0 0 9449 5315" version="1.1" xmlns="http://www.w3.org/2000/svg" xmlns:xlink="http://www.w3.org/1999/xlink" xml:space="preserve" xmlns:serif="http://www.serif.com/" style="fill-rule:evenodd;clip-rule:evenodd;stroke-linejoin:round;stroke-miterlimit:2;">
    <g id="shelf-front" serif:id="shelf front">
        <g transform="matrix(1.14376,0,0,0.820019,-308.426,1105.12)">
            <rect x="2347.66" y="2907.44" width="4179.42" height="136.352" style="fill:rgb(72,67,66);"/>
            <path d="M6571.39,2907.44L6571.39,3043.79C6571.39,3077.92 6551.55,3105.59 6527.08,3105.59L2347.66,3105.59C2323.2,3105.59 2303.36,3077.92 2303.36,3043.79L2303.36,2907.44C2303.36,2873.3 2323.2,2845.63 2347.66,2845.63L6527.08,2845.63C6551.55,2845.63 6571.39,2873.3 6571.39,2907.44ZM6527.08,2907.44L2347.66,2907.44L2347.66,3043.79L6527.08,3043.79L6527.08,2907.44Z" style="fill:rgb(35,31,32);"/>
        </g>
        <g transform="matrix(1.13471,0,0,1.13471,-295.396,-231.5)">
            <g transform="matrix(1,0,0,0.65749,4.66894,141.683)">
                <path d="M2288.22,1819.68L2288.22,821.313L6625.01,821.313L6625.01,1819.68L6513.09,1819.68L6513.09,1796.67C6513.09,1779.04 6508.49,1762.13 6500.29,1749.66C6492.09,1737.19 6480.97,1730.18 6469.38,1730.18L6415.31,1730.18C6370.91,1730.18 6328.34,1703.36 6296.94,1655.61C6265.55,1607.87 6247.91,1543.11 6247.91,1475.58L6247.91,1475.58C6247.91,1410.03 6212.98,1356.89 6169.88,1356.89L6093.12,1356.89L6093.12,1262.92C6093.12,1238.59 6080.15,1218.86 6064.15,1218.86C5984.51,1218.86 5762.5,1218.86 5676.42,1218.86C5653.32,1218.86 5630.25,1221.85 5607.48,1227.82C5505.66,1254.47 5202.19,1333.93 5049.18,1373.99C4989.68,1389.57 4928.65,1385.22 4870.37,1361.25C4786.18,1326.62 4661.62,1275.39 4587.11,1244.74C4550.27,1229.59 4511.43,1255.11 4493.43,1306.3C4477.49,1351.63 4461.31,1397.64 4461.31,1397.64C4461.31,1397.64 4450,1358.17 4438.01,1316.32C4421.92,1260.17 4381.39,1230.11 4342.39,1245.41C4257.73,1278.63 4113.39,1335.26 4026.65,1369.29C3978.86,1388.04 3929.25,1393.68 3880.15,1385.94C3657.99,1350.92 3004.33,1247.89 2852.07,1223.89C2843.91,1222.61 2835.77,1226.64 2829.68,1235C2823.59,1243.36 2820.11,1255.25 2820.11,1267.73L2820.11,1356.89L2743.35,1356.89C2700.26,1356.89 2665.32,1410.03 2665.32,1475.58L2665.32,1475.58C2665.32,1543.11 2647.68,1607.87 2616.29,1655.61C2584.9,1703.36 2542.32,1730.18 2497.92,1730.18L2443.86,1730.18C2432.26,1730.18 2421.14,1737.19 2412.94,1749.66C2404.74,1762.13 2400.14,1779.04 2400.14,1796.67L2400.14,1819.68L2288.22,1819.68Z" style="fill:rgb(106,98,97);"/>
                <path d="M6050.34,1283.93L5676.42,1283.93C5655.75,1283.93 5635.11,1286.61 5614.74,1291.94L5056.44,1438.12C4990.8,1455.3 4923.49,1450.5 4859.2,1424.06L4575.94,1307.56C4558.33,1300.31 4539.76,1312.51 4531.16,1336.98L4499.04,1428.33C4491.31,1450.32 4475.99,1463.66 4459.6,1462.66C4443.22,1461.66 4428.65,1446.5 4422.09,1423.64L4398.79,1342.32C4391.1,1315.47 4371.72,1301.11 4353.08,1308.42L4037.33,1432.3C3984.62,1452.98 3929.89,1459.2 3875.74,1450.66L2862.89,1291.02L2862.89,1356.89C2862.89,1392.83 2843.74,1421.96 2820.11,1421.96L2743.35,1421.96C2723.89,1421.96 2708.1,1445.97 2708.1,1475.58L2708.1,1475.58C2708.1,1560.36 2685.96,1641.67 2646.54,1701.62C2607.12,1761.57 2553.66,1795.25 2497.92,1795.25L2443.86,1795.25C2443.61,1795.25 2443.37,1795.4 2443.2,1795.67C2443.02,1795.94 2442.92,1796.3 2442.92,1796.67L2442.92,1819.68C2442.92,1855.62 2423.77,1884.75 2400.14,1884.75L2288.22,1884.75C2264.59,1884.75 2245.44,1855.62 2245.44,1819.68L2245.44,821.313C2245.44,785.376 2264.59,756.243 2288.22,756.243L6625.01,756.243C6648.64,756.243 6667.79,785.376 6667.79,821.313L6667.79,1819.68C6667.79,1855.62 6648.64,1884.75 6625.01,1884.75L6513.09,1884.75C6489.47,1884.75 6470.31,1855.62 6470.31,1819.68L6470.31,1796.67C6470.31,1796.3 6470.21,1795.94 6470.04,1795.67C6469.86,1795.4 6469.62,1795.25 6469.38,1795.25L6415.31,1795.25C6359.57,1795.25 6306.11,1761.57 6266.69,1701.62C6227.27,1641.67 6205.13,1560.36 6205.13,1475.58L6205.13,1475.58C6205.13,1445.97 6189.35,1421.96 6169.88,1421.96L6093.12,1421.96C6069.5,1421.96 6050.34,1392.83 6050.34,1356.89L6050.34,1283.93ZM2288.22,1819.68L2400.14,1819.68L2400.14,1796.67C2400.14,1779.04 2404.74,1762.13 2412.94,1749.66C2421.14,1737.19 2432.26,1730.18 2443.86,1730.18L2497.92,1730.18C2542.32,1730.18 2584.9,1703.36 2616.29,1655.61C2647.68,1607.87 2665.32,1543.11 2665.32,1475.58L2665.32,1475.58C2665.32,1410.03 2700.26,1356.89 2743.35,1356.89L2820.11,1356.89L2820.11,1267.73C2820.11,1255.25 2823.59,1243.36 2829.68,1235C2835.77,1226.64 2843.91,1222.61 2852.07,1223.89L3880.15,1385.94C3929.25,1393.68 3978.86,1388.04 4026.65,1369.29L4342.39,1245.41C4381.39,1230.11 4421.92,1260.17 4438.01,1316.32L4461.31,1397.64L4493.43,1306.3C4511.43,1255.11 4550.27,1229.59 4587.11,1244.74L4870.37,1361.25C4928.65,1385.22 4989.68,1389.57 5049.18,1373.99L5607.48,1227.82C5630.25,1221.85 5653.32,1218.86 5676.42,1218.86L6064.15,1218.86C6080.15,1218.86 6093.12,1238.59 6093.12,1262.92L6093.12,1356.89L6169.88,1356.89C6212.98,1356.89 6247.91,1410.03 6247.91,1475.58L6247.91,1475.58C6247.91,1543.11 6265.55,1607.87 6296.94,1655.61C6328.34,1703.36 6370.91,1730.18 6415.31,1730.18L6469.38,1730.18C6480.97,1730.18 6492.09,1737.19 6500.29,1749.66C6508.49,1762.13 6513.09,1779.04 6513.09,1796.67L6513.09,1819.68L6625.01,1819.68L6625.01,821.313L2288.22,821.313L2288.22,1819.68Z" style="fill:rgb(35,31,32);"/>
            </g>
            <g transform="matrix(1,0,0,1,-35.7015,19.6524)">
                <path d="M4296.86,603.569C4288.4,592.191 4283.39,578.097 4283.39,562.843C4283.39,525.115 4314.02,494.485 4351.75,494.485C4376,494.485 4397.32,507.142 4409.46,526.206C4405.86,516.304 4403.9,505.622 4403.9,494.485C4403.9,443.111 4445.61,401.402 4496.99,401.402C4548.36,401.402 4590.07,443.111 4590.07,494.485C4590.07,505.622 4588.11,516.304 4584.52,526.206C4596.65,507.142 4617.97,494.485 4642.22,494.485C4679.95,494.485 4710.58,525.115 4710.58,562.843C4710.58,578.097 4705.57,592.191 4697.12,603.569C4709,593.585 4724.33,587.569 4741.05,587.569C4778.78,587.569 4809.41,618.199 4809.41,655.927C4809.41,693.655 4778.78,724.285 4741.05,724.285C4579.7,724.285 4496.99,922.669 4496.99,922.669C4496.99,922.669 4412.78,724.285 4252.93,724.285C4215.2,724.285 4184.57,693.655 4184.57,655.927C4184.57,618.199 4215.2,587.569 4252.93,587.569C4269.65,587.569 4284.97,593.585 4296.86,603.569Z" style="fill:rgb(72,67,66);"/>
                <path d="M4241.98,545.318C4250.4,492.292 4296.37,451.702 4351.75,451.702C4357.14,451.702 4362.45,452.087 4367.64,452.83C4385.24,398.194 4436.53,358.619 4496.99,358.619C4557.45,358.619 4608.73,398.194 4626.34,452.83C4631.53,452.087 4636.83,451.702 4642.22,451.702C4697.6,451.702 4743.57,492.292 4751.99,545.318C4808.2,550.822 4852.19,598.278 4852.19,655.927C4852.19,717.267 4802.39,767.068 4741.05,767.068C4688.69,767.068 4647.02,793.867 4615.29,824.767C4563.06,875.622 4536.48,939.134 4536.48,939.134C4529.85,955.025 4514.34,965.397 4497.12,965.451C4479.9,965.506 4464.33,955.234 4457.61,939.385C4457.61,939.385 4430.49,875.747 4378.07,824.794C4346.3,793.91 4304.77,767.068 4252.93,767.068C4191.59,767.068 4141.78,717.267 4141.78,655.927C4141.78,598.278 4185.77,550.822 4241.98,545.318ZM4296.86,603.569C4284.97,593.585 4269.65,587.569 4252.93,587.569C4215.2,587.569 4184.57,618.199 4184.57,655.927C4184.57,693.655 4215.2,724.285 4252.93,724.285C4412.78,724.285 4496.99,922.669 4496.99,922.669C4496.99,922.669 4579.7,724.285 4741.05,724.285C4778.78,724.285 4809.41,693.655 4809.41,655.927C4809.41,618.199 4778.78,587.569 4741.05,587.569C4724.33,587.569 4709,593.585 4697.12,603.569C4705.57,592.191 4710.58,578.097 4710.58,562.843C4710.58,525.115 4679.95,494.485 4642.22,494.485C4617.97,494.485 4596.65,507.142 4584.52,526.206C4588.11,516.304 4590.07,505.622 4590.07,494.485C4590.07,443.111 4548.36,401.402 4496.99,401.402C4445.61,401.402 4403.9,443.111 4403.9,494.485C4403.9,505.622 4405.86,516.304 4409.46,526.206C4397.32,507.142 4376,494.485 4351.75,494.485C4314.02,494.485 4283.39,525.115 4283.39,562.843C4283.39,578.097 4288.4,592.191 4296.86,603.569Z" style="fill:rgb(35,31,32);"/>
            </g>
        </g>
    </g>
</svg>
