<?xml version="1.0" encoding="UTF-8" standalone="no"?><!DOCTYPE svg PUBLIC "-//W3C//DTD SVG 1.1//EN" "http://www.w3.org/Graphics/SVG/1.1/DTD/svg11.dtd"><svg width="100%" height="100%" viewBox="0 0 596 842" version="1.1" xmlns="http://www.w3.org/2000/svg" xmlns:xlink="http://www.w3.org/1999/xlink" xml:space="preserve" xmlns:serif="http://www.serif.com/" style="fill-rule:evenodd;clip-rule:evenodd;stroke-linejoin:round;stroke-miterlimit:1.5;"><g><g><path d="M465.376,169.442c-0,-7.891 -6.407,-14.297 -14.298,-14.297l-306.881,-0c-7.891,-0 -14.297,6.406 -14.297,14.297l-0,33.362l335.476,-0l-0,-33.362Z" style="fill:#5c5d5f;"/><path d="M481.569,169.442c0,-16.828 -13.662,-30.491 -30.491,-30.491c0,0 -306.881,0 -306.881,0c-16.828,0 -30.491,13.663 -30.491,30.491l0,33.362c0,8.943 7.25,16.193 16.194,16.193l335.476,0c8.943,0 16.193,-7.25 16.193,-16.193l0,-33.362Zm-16.193,0c-0,-7.891 -6.407,-14.297 -14.298,-14.297l-306.881,-0c-7.891,-0 -14.297,6.406 -14.297,14.297l-0,33.362l335.476,-0l-0,-33.362Z" style="fill:#231f20;"/><path d="M323.044,155.145l0,-16.602c0,-9.164 -7.439,-16.603 -16.602,-16.603l-17.608,0c-9.163,0 -16.603,7.439 -16.603,16.603l0,16.602" style="fill:#7f8184;stroke:#231f20;stroke-width:16.19px;"/></g></g></svg>