<?xml version="1.0" encoding="UTF-8" standalone="no"?><!DOCTYPE svg PUBLIC "-//W3C//DTD SVG 1.1//EN" "http://www.w3.org/Graphics/SVG/1.1/DTD/svg11.dtd"><svg width="100%" height="100%" viewBox="0 0 596 842" version="1.1" xmlns="http://www.w3.org/2000/svg" xmlns:xlink="http://www.w3.org/1999/xlink" xml:space="preserve" xmlns:serif="http://www.serif.com/" style="fill-rule:evenodd;clip-rule:evenodd;stroke-linecap:round;stroke-linejoin:round;stroke-miterlimit:1.5;"><g><path d="M160.146,342.503l-55.537,0c-5.445,0 -9.866,4.421 -9.866,9.866c-0,5.445 4.421,9.866 9.866,9.866l55.537,0l0,-19.732Z" style="fill:none;stroke:#231f20;stroke-width:32.39px;"/><path d="M435.129,342.503l55.538,0c5.445,0 9.866,4.421 9.866,9.866c-0,5.445 -4.421,9.866 -9.866,9.866l-55.538,0l0,-19.732Z" style="fill:none;stroke:#231f20;stroke-width:32.39px;"/><path d="M455.127,290.883l-314.978,-0l-0,399.144c-0,8.693 7.057,15.749 15.749,15.749l283.48,0c8.692,0 15.749,-7.056 15.749,-15.749l-0,-399.144Z" style="fill:none;stroke:#231f20;stroke-width:32.39px;"/></g><g><path d="M455.127,290.883l-314.978,-0l-0,399.144c-0,8.693 7.057,15.749 15.749,15.749l283.48,0c8.692,0 15.749,-7.056 15.749,-15.749l-0,-399.144Z" style="fill:#7f8184;"/><path d="M140.149,324.211l314.978,0" style="fill:none;stroke:#5c5d5f;stroke-width:12.95px;stroke-linecap:butt;"/><path d="M160.146,342.503l-55.537,0c-5.445,0 -9.866,4.421 -9.866,9.866c-0,5.445 4.421,9.866 9.866,9.866l55.537,0l0,-19.732Z" style="fill:#5c5d5f;"/><path d="M435.129,342.503l55.538,0c5.445,0 9.866,4.421 9.866,9.866c-0,5.445 -4.421,9.866 -9.866,9.866l-55.538,0l0,-19.732Z" style="fill:#5c5d5f;"/><path d="M196.478,407.587c0,-8.258 -6.705,-14.963 -14.963,-14.963c-8.258,0 -14.963,6.705 -14.963,14.963l0,258.394c0,8.258 6.705,14.963 14.963,14.963c8.258,0 14.963,-6.705 14.963,-14.963l0,-258.394Z" style="fill:#5c5d5f;"/><path d="M312.601,407.587c-0,-8.258 -6.705,-14.963 -14.963,-14.963c-8.258,0 -14.963,6.705 -14.963,14.963l-0,258.394c-0,8.258 6.705,14.963 14.963,14.963c8.258,0 14.963,-6.705 14.963,-14.963l-0,-258.394Z" style="fill:#5c5d5f;"/><path d="M254.498,407.587c-0,-8.258 -6.705,-14.963 -14.963,-14.963c-8.259,0 -14.963,6.705 -14.963,14.963l-0,258.394c-0,8.258 6.704,14.963 14.963,14.963c8.258,0 14.963,-6.705 14.963,-14.963l-0,-258.394Z" style="fill:#5c5d5f;"/><path d="M428.723,407.587c0,-8.258 -6.704,-14.963 -14.963,-14.963c-8.258,0 -14.963,6.705 -14.963,14.963l0,258.394c0,8.258 6.705,14.963 14.963,14.963c8.259,0 14.963,-6.705 14.963,-14.963l0,-258.394Z" style="fill:#5c5d5f;"/><path d="M370.62,407.587c0,-8.258 -6.704,-14.963 -14.963,-14.963c-8.258,0 -14.963,6.705 -14.963,14.963l0,258.394c0,8.258 6.705,14.963 14.963,14.963c8.259,0 14.963,-6.705 14.963,-14.963l0,-258.394Z" style="fill:#5c5d5f;"/></g></svg>