<?xml version="1.0" encoding="UTF-8" standalone="no"?>
<!DOCTYPE svg PUBLIC "-//W3C//DTD SVG 1.1//EN" "http://www.w3.org/Graphics/SVG/1.1/DTD/svg11.dtd">
<svg width="100%" height="100%" viewBox="0 0 1872 1384" version="1.1" xmlns="http://www.w3.org/2000/svg" xmlns:xlink="http://www.w3.org/1999/xlink" xml:space="preserve" xmlns:serif="http://www.serif.com/" style="fill-rule:evenodd;clip-rule:evenodd;stroke-linejoin:round;stroke-miterlimit:2;">
    <g transform="matrix(1,0,0,1,-850.112,-1971.33)">
        <g transform="matrix(1,0,0,1,-6206.05,-2338.07)">
            <g transform="matrix(1,0,0,1,-189.664,6.20979)">
                <path d="M7651.15,5372.64L7305.04,5380.62C7327.42,5178.91 7395.78,4795.95 7526.97,4703.04C7658.16,4610.13 8155.47,4383.15 8412.07,4363.17C8668.66,4343.19 8962.33,4709.33 9057.65,5340.22L8905.59,5343.72C8923.91,5389.54 8935.87,5437.19 8940.43,5485.6C8970.03,5800.2 8847.75,5494.51 8847.75,5494.51C8847.75,5494.51 8825.87,5428.44 8776.84,5346.69L7830.43,5368.51C7811.82,5420.76 7801.44,5469.23 7794.4,5504.86C7767.44,5641.34 7562.36,5648.56 7607.61,5489.69C7616.75,5457.61 7631.06,5417.13 7651.15,5372.64Z" style="fill:rgb(119,137,139);"/>
                <path d="M7563.14,5433.89L7306.4,5439.81C7289.33,5440.21 7272.92,5433.21 7261.38,5420.62C7249.85,5408.03 7244.31,5391.07 7246.19,5374.09C7262.36,5228.44 7302.28,4991.3 7370.89,4829.18C7404.49,4749.76 7446.35,4687.59 7492.75,4654.73C7628.3,4558.73 8142.35,4324.78 8407.47,4304.14C8525.37,4294.96 8652.01,4352.79 8766.23,4476.62C8921.19,4644.62 9056.77,4938.09 9116.19,5331.37C9118.73,5348.19 9113.92,5365.29 9102.98,5378.31C9092.03,5391.33 9076.02,5399.02 9059.02,5399.41C9059.02,5399.41 8986.04,5401.09 8986.04,5401.09C8992.39,5427.11 8996.87,5453.48 8999.37,5480.06C9006.53,5556.17 9004.53,5600.77 8999.19,5623.73L8987.71,5652.93L8979.56,5663.95L8967.39,5674.79L8954.9,5681.69L8940.72,5685.91L8913.87,5685.34L8891.7,5676.42L8872.37,5660.94C8839.16,5627.07 8792.78,5516.5 8792.78,5516.5C8792.34,5515.39 8791.93,5514.26 8791.55,5513.12C8791.55,5513.12 8776.32,5467.68 8742.99,5406.69C8742.99,5406.69 7873.8,5426.73 7873.8,5426.73C7863.81,5460.84 7857.32,5491.83 7852.48,5516.33C7828.13,5639.62 7703.67,5687.32 7625.56,5658.52C7592.93,5646.48 7566.38,5622.9 7552.14,5587.46C7540.77,5559.17 7537.04,5521.33 7550.67,5473.48C7554.13,5461.34 7558.27,5448.07 7563.14,5433.89ZM7651.15,5372.64C7631.06,5417.13 7616.75,5457.61 7607.61,5489.69C7562.36,5648.56 7767.44,5641.34 7794.4,5504.86C7801.44,5469.23 7811.82,5420.76 7830.43,5368.51L8776.84,5346.69C8825.87,5428.44 8847.75,5494.51 8847.75,5494.51C8847.75,5494.51 8970.03,5800.2 8940.43,5485.6C8935.87,5437.19 8923.91,5389.54 8905.59,5343.72L9057.65,5340.22C8962.33,4709.33 8668.66,4343.19 8412.07,4363.17C8155.47,4383.15 7658.16,4610.13 7526.97,4703.04C7395.78,4795.95 7327.42,5178.91 7305.04,5380.62L7651.15,5372.64Z" style="fill:rgb(35,31,32);"/>
            </g>
            <g transform="matrix(1,0,0,1,-189.664,6.20979)">
                <g transform="matrix(2.26267,0,0,2.26267,1706.34,-172.897)">
                    <path d="M2474.38,2454.41C2484.27,2365.27 2514.49,2196.02 2572.47,2154.95C2630.44,2113.89 2850.23,2013.57 2963.64,2004.74C3077.04,1995.91 3206.83,2157.73 3248.96,2436.56" style="fill:rgb(119,137,139);"/>
                </g>
                <g transform="matrix(2.26267,0,0,2.26267,1706.34,-172.897)">
                    <path d="M2594.63,2223.95C2621.8,2279.65 2833.62,2230.07 2905.62,2193.31C2977.62,2156.54 3045.03,2110.58 3014.39,2053.89C2983.75,1997.21 2533.35,2098.32 2594.63,2223.95Z" style="fill:rgb(192,106,116);"/>
                </g>
                <g transform="matrix(2.26267,0,0,2.26267,1706.34,-172.897)">
                    <path d="M2608.1,2502.62C2628.1,2432.41 2704.19,2271.23 2868.56,2254.21C3032.92,2237.19 3184.07,2361.77 3197.15,2500.81C3210.24,2639.85 3156.19,2504.75 3156.19,2504.75C3156.19,2504.75 3089.17,2302.41 2912.68,2303.9C2736.19,2305.39 2702.57,2449 2690.66,2509.32C2678.74,2569.64 2588.1,2572.83 2608.1,2502.62Z" style="fill:rgb(36,112,80);"/>
                </g>
            </g>
        </g>
    </g>
</svg>
