<?xml version="1.0" encoding="UTF-8" standalone="no"?>
<!DOCTYPE svg PUBLIC "-//W3C//DTD SVG 1.1//EN" "http://www.w3.org/Graphics/SVG/1.1/DTD/svg11.dtd">
<svg width="100%" height="100%" viewBox="0 0 1780 1479" version="1.1" xmlns="http://www.w3.org/2000/svg" xmlns:xlink="http://www.w3.org/1999/xlink" xml:space="preserve" xmlns:serif="http://www.serif.com/" style="fill-rule:evenodd;clip-rule:evenodd;stroke-linejoin:round;stroke-miterlimit:2;">
    <g transform="matrix(1,0,0,1,-595.818,-1027.59)">
        <g transform="matrix(1,0,0,1,-6395.72,-2331.86)">
            <g transform="matrix(2.16906,0.644062,-0.644062,2.16906,2611.56,-1188.99)">
                <path d="M2616.03,1737.55C2597.17,1727.48 2564.15,1707.87 2548.08,1745.59C2532.01,1783.31 2575.18,1822.45 2602.68,1823.27C2630.19,1824.09 2658.52,1794.67 2652.18,1780.31C2645.85,1765.94 2634.89,1747.63 2616.03,1737.55Z" style="fill:rgb(192,106,116);"/>
            </g>
            <g transform="matrix(2.16906,0.644062,-0.644062,2.16906,2611.56,-1188.99)">
                <path d="M3171.82,1519.34C3196.67,1505.93 3232.55,1464.88 3254.13,1487.41C3275.71,1509.95 3279.94,1554.88 3256.79,1590.49C3233.64,1626.1 3207.29,1653.61 3178.56,1612.76C3149.82,1571.9 3146.96,1532.76 3171.82,1519.34Z" style="fill:rgb(192,106,116);"/>
            </g>
            <g transform="matrix(2.16906,0.644062,-0.644062,2.16906,2611.56,-1188.99)">
                <path d="M2707.63,1297.96C2635.94,1327.59 2578.39,1404.31 2567.33,1518.32C2555.58,1639.53 2563.45,1697.34 2588.68,1744.89C2613.91,1792.44 2687.12,1886.03 2752.16,1914.71C2817.02,1943.31 2955.86,1904.17 3029.91,1876.85C3144.43,1834.61 3219.4,1718.76 3206.85,1553.53C3193.99,1384.34 3145.4,1318.6 3112.99,1289.74C3061.31,1243.71 2974.82,1241.64 2896.61,1248.4C2824.96,1254.6 2765,1274.25 2707.63,1297.96Z" style="fill:rgb(236,170,168);"/>
            </g>
            <g transform="matrix(2.24074,-0.314207,0.314207,2.24074,4504.24,363.069)">
                <path d="M1617.01,1899.86C1657.49,1870.08 1655.07,1785.47 1610.76,1779.88C1566.45,1774.28 1552.27,1785.66 1543.31,1823.81C1534.36,1861.97 1492.57,1946.83 1507.4,1963.59C1522.23,1980.35 1553.2,1962.34 1562.62,1929.41C1572.05,1896.48 1601.9,1910.97 1617.01,1899.86Z" style="fill:rgb(102,82,70);"/>
            </g>
        </g>
    </g>
</svg>
