<?xml version="1.0" encoding="UTF-8" standalone="no"?>
<!DOCTYPE svg PUBLIC "-//W3C//DTD SVG 1.1//EN" "http://www.w3.org/Graphics/SVG/1.1/DTD/svg11.dtd">
<svg width="100%" height="100%" viewBox="0 0 290 236" version="1.1" xmlns="http://www.w3.org/2000/svg" xmlns:xlink="http://www.w3.org/1999/xlink" xml:space="preserve" xmlns:serif="http://www.serif.com/" style="fill-rule:evenodd;clip-rule:evenodd;stroke-linejoin:round;stroke-miterlimit:2;">
    <g transform="matrix(1,0,0,1,-1212.19,-1575.01)">
        <g transform="matrix(2.07597,0.9,-0.9,2.07597,-3141.68,-4118.95)">
            <path d="M2871.06,1535.19C2867.12,1531.01 2850.26,1511.69 2823.98,1518.92C2797.7,1526.15 2801.95,1552.85 2801.95,1552.85C2801.05,1567.22 2786.28,1591.96 2793.81,1606.57C2801.34,1621.18 2812.29,1626.68 2825.07,1618.74C2837.85,1610.81 2845.17,1621.63 2859.66,1616.22C2874.15,1610.81 2873.05,1593.39 2885.26,1589.4C2897.47,1585.41 2926.45,1566.57 2906.18,1550.08C2885.91,1533.6 2871.06,1535.19 2871.06,1535.19Z" style="fill:rgb(192,106,116);"/>
        </g>
    </g>
</svg>
