<?xml version="1.0" encoding="UTF-8" standalone="no"?>
<!DOCTYPE svg PUBLIC "-//W3C//DTD SVG 1.1//EN" "http://www.w3.org/Graphics/SVG/1.1/DTD/svg11.dtd">
<svg width="100%" height="100%" viewBox="0 0 2481 3508" version="1.1" xmlns="http://www.w3.org/2000/svg" xmlns:xlink="http://www.w3.org/1999/xlink" xml:space="preserve" xmlns:serif="http://www.serif.com/" style="fill-rule:evenodd;clip-rule:evenodd;stroke-linejoin:round;stroke-miterlimit:2;">
    <g transform="matrix(2.83441,0,0,2.83441,-781.677,-403.221)">
        <g transform="matrix(0.953324,0.301949,-0.301949,0.953324,195.064,-182.336)">
            <path d="M789.047,643.051L809.637,622.461L820.175,632.999C822.88,635.704 824.399,639.372 824.399,643.198C824.399,647.023 822.88,650.691 820.175,653.396L819.723,653.848C817.087,656.484 813.512,657.965 809.784,657.965C806.056,657.965 802.481,656.484 799.845,653.848L789.047,643.051ZM834.376,576.521L840.817,548.124L855.613,551.48C863.445,553.257 868.353,561.046 866.577,568.877L866.547,569.012C864.782,576.789 857.048,581.664 849.27,579.9L834.376,576.521ZM716.828,681.278L745.24,674.9L748.214,688.15C749.017,691.727 748.366,695.477 746.404,698.574C744.443,701.672 741.331,703.863 737.753,704.666L737.015,704.832C729.181,706.59 721.405,701.665 719.646,693.831L716.828,681.278ZM543.744,515.116L526.588,511.599C522.915,510.845 519.691,508.664 517.626,505.533C515.56,502.403 514.823,498.581 515.577,494.907L515.621,494.692C517.258,486.707 525.058,481.561 533.043,483.198L549.593,486.591L543.744,515.116ZM574.316,440.643L561.948,428.78C556.217,423.283 556.028,414.182 561.524,408.451L561.98,407.976C564.565,405.28 568.116,403.722 571.85,403.645C575.584,403.567 579.196,404.976 581.891,407.561L594.472,419.629L574.316,440.643ZM557.73,594.712L540.411,601.277C536.942,602.592 533.093,602.476 529.709,600.952C526.326,599.429 523.687,596.624 522.372,593.155L522.077,592.379C519.278,584.995 522.995,576.739 530.379,573.94L547.408,567.484L557.73,594.712ZM702.75,491.223L619.1,651.809C594.636,636.792 575.251,613.251 565.912,583.765L565.766,583.305C543.31,512.404 575.627,437.166 638.972,403.352C639.822,407.092 640.834,410.827 642.013,414.549C652.6,447.976 674.79,474.54 702.75,491.223ZM826.557,500.242C835.484,571.782 792.424,641.827 721.248,664.371C691.953,673.649 661.748,671.441 635.504,660.275L719.196,499.608C748.587,512.21 782.477,514.736 815.347,504.325C819.175,503.112 822.913,501.748 826.557,500.242ZM656.183,395.501C659,394.422 661.866,393.419 664.779,392.497L712.401,377.413C751.481,365.035 793.259,386.714 805.637,425.794L820.575,472.957C821.49,475.847 822.315,478.746 823.051,481.648C818.78,483.577 814.35,485.277 809.773,486.727C746.812,506.669 679.522,471.839 659.611,408.975C658.193,404.5 657.054,400.002 656.183,395.501ZM685.167,361.697C686.641,366.053 684.302,370.787 679.945,372.262C675.588,373.736 670.854,371.396 669.38,367.04C664.385,352.282 661.432,340.203 666.608,329.539C670.093,322.359 677.34,315.347 691.484,308.926C695.672,307.025 700.616,308.881 702.517,313.069C704.418,317.257 702.562,322.201 698.374,324.102C689.16,328.285 683.872,332.139 681.602,336.817C680.191,339.724 680.211,342.83 680.741,346.196C681.487,350.929 683.253,356.041 685.167,361.697ZM842.603,456.063C838.208,457.42 833.538,454.954 832.181,450.559C830.824,446.165 833.291,441.495 837.685,440.138C846.137,437.529 852.97,436.103 856.771,431.546C860.327,427.283 860.177,420.554 857.747,408.544C856.834,404.036 859.754,399.636 864.261,398.724C868.769,397.811 873.17,400.73 874.082,405.238C878.015,424.674 875.324,435.324 869.57,442.222C864.064,448.821 854.842,452.284 842.603,456.063Z" style="fill:rgb(74,198,0);"/>
        </g>
        <g transform="matrix(0.953324,0.301949,-0.301949,0.953324,195.064,-182.336)">
            <path d="M900.564,585.37L899.915,587.303L894.765,596.213L888.115,603.792L880.235,609.882L871.341,614.363L861.635,617.093L855.057,617.607L858.081,623.272L861.035,632.992L862.045,643.198L861.035,653.404L858.081,663.123L853.297,672.085L846.794,680.016L846.343,680.467L838.468,686.924L829.569,691.675L819.918,694.608L809.784,695.61L799.65,694.608L789.999,691.675L786.137,689.613L786.181,689.967L785.436,699.981L782.762,709.66L778.208,718.717L771.966,726.705L764.359,733.26L755.624,738.213L745.999,741.397L745.26,741.563L734.806,742.824L724.529,741.998L714.81,739.242L705.91,734.732L698.029,728.613L691.383,721.005L686.244,712.067L684.829,707.822C662.555,707.952 640.777,703.43 620.765,694.914C617.002,693.313 613.567,691.129 610.565,688.474C606.662,687.566 602.891,686.031 599.406,683.892C580.26,672.139 563.497,656.383 550.52,637.352L543.937,639.129L533.886,639.807L523.895,638.521L514.255,635.279L505.437,630.211L497.851,623.583L491.695,615.609L487.171,606.5L486.877,605.724L484.166,595.598L483.537,585.354L484.888,575.39L488.082,565.986L493.006,557.36L499.57,549.742L506.79,544.1L500.406,540.635L492.631,534.184L486.202,526.264L481.451,517.238L478.58,507.552L477.644,497.492L477.894,495.08L478.899,486.63L481.898,477.038L486.891,467.968L493.421,460.205L501.221,453.914L510.073,449.219L519.78,446.27L527.715,445.484L524.108,438.961L521.044,429.367L519.889,419.487L520.632,409.568L523.293,399.855L527.889,390.661L534.356,382.392L534.812,381.917L542.555,375.294L551.356,370.357L560.949,367.222L571.065,366.007L581.223,366.799L590.938,369.532L599.938,374.098L606.253,379.059C611.079,375.877 616.079,372.899 621.244,370.142C624.054,368.642 627.01,367.521 630.039,366.781C624.806,346.295 625.137,328.767 632.742,313.1C638.979,300.251 650.609,286.14 675.922,274.648L693.738,270.549L711.093,273.472L726.081,282.695L736.795,297.507L740.894,315.322L737.971,332.677L735.752,336.283C771.816,336.587 805.832,354.452 826.54,384.033L827.601,381.475L839.955,368.941L856.794,361.826L875.075,361.833L891.33,368.578L903.865,380.932L910.979,397.771C918.337,434.128 909.242,453.433 898.477,466.337C890.482,475.92 878.724,483.165 862.51,489.082C863.163,491.185 863.635,493.358 863.912,495.58C864.732,502.149 865.2,508.708 865.329,515.234L873.924,518.119L882.851,523.278L890.445,529.941L896.546,537.837L901.036,546.748L903.771,556.473L904.574,566.752L903.29,577.205L903.289,577.208C903.289,577.208 901.466,583.295 900.117,586.343C899.983,586.646 900.404,585.719 900.564,585.37ZM477.894,495.08L477.976,494.293L477.894,495.08ZM900.564,585.37L903.259,577.339C903.168,577.737 903.072,578.131 902.971,578.521C902.324,581.03 900.564,585.37 900.564,585.37ZM836.595,566.739L834.458,576.514L842.692,578.407L849.27,579.9C857.048,581.664 864.782,576.789 866.547,569.012L866.577,568.877C868.353,561.046 863.445,553.257 855.613,551.48L840.817,548.124L836.595,566.739ZM541.412,514.638L543.612,514.911L549.593,486.591L533.043,483.198C525.058,481.561 517.258,486.707 515.621,494.692L515.577,494.907C514.823,498.581 515.56,502.403 517.626,505.533C519.691,508.664 522.915,510.845 526.588,511.599L541.412,514.638ZM540.411,601.277L557.73,594.712L547.408,567.484L530.379,573.94C522.995,576.739 519.278,584.995 522.077,592.379L522.372,593.155C523.687,596.624 526.326,599.429 529.709,600.952C533.093,602.476 536.942,602.592 540.411,601.277ZM680.414,341.976C680.479,338.834 680.765,337.99 682.337,335.496C684.92,331.399 690.041,327.885 698.374,324.102C702.562,322.201 704.418,317.257 702.517,313.069C700.616,308.881 695.672,307.025 691.484,308.926C677.34,315.347 670.093,322.359 666.608,329.539C661.432,340.203 664.385,352.282 669.38,367.04C670.854,371.396 675.588,373.736 679.945,372.262C684.302,370.787 686.641,366.053 685.167,361.697C683.253,356.041 681.487,350.929 680.741,346.196C680.512,344.743 680.386,343.338 680.414,341.976ZM859.236,425.86C858.34,430.818 857.147,431.766 854.319,433.81C850.347,436.68 844.55,438.019 837.685,440.138C833.291,441.495 830.824,446.165 832.181,450.559C833.538,454.954 838.208,457.42 842.603,456.063C854.842,452.284 864.064,448.821 869.57,442.222C875.324,435.324 878.015,424.674 874.082,405.238C873.17,400.73 868.769,397.811 864.261,398.724C859.754,399.636 856.834,404.036 857.747,408.544C859.303,416.236 859.975,421.77 859.236,425.86ZM789.047,643.051L799.845,653.848C802.481,656.484 806.056,657.965 809.784,657.965C813.512,657.965 817.087,656.484 819.723,653.848L820.175,653.396C822.88,650.691 824.399,647.023 824.399,643.198C824.399,639.372 822.88,635.704 820.175,632.999L809.637,622.461L789.047,643.051ZM716.828,681.278L719.646,693.831C721.405,701.665 729.181,706.59 737.015,704.832L737.753,704.666C741.331,703.863 744.443,701.672 746.404,698.574C748.366,695.477 749.017,691.727 748.214,688.15L745.24,674.9L716.828,681.278ZM574.316,440.643L594.472,419.629L581.891,407.561C579.196,404.976 575.584,403.567 571.85,403.645C568.116,403.722 564.565,405.28 561.98,407.976L561.524,408.451C556.028,414.182 556.217,423.283 561.948,428.78L574.316,440.643ZM826.557,500.242C822.913,501.748 819.175,503.112 815.347,504.325C782.477,514.736 748.587,512.21 719.196,499.608L635.504,660.275C661.748,671.441 691.953,673.649 721.248,664.371C792.424,641.827 835.484,571.782 826.557,500.242ZM656.183,395.501C657.054,400.002 658.193,404.5 659.611,408.975C679.522,471.839 746.812,506.669 809.773,486.727C814.35,485.277 818.78,483.577 823.051,481.648C822.315,478.746 821.49,475.847 820.575,472.957L805.637,425.794C793.259,386.714 751.481,365.035 712.401,377.413L664.779,392.497C661.866,393.419 659,394.422 656.183,395.501ZM702.75,491.223C674.79,474.54 652.6,447.976 642.013,414.549C640.834,410.827 639.822,407.092 638.972,403.352C575.627,437.166 543.31,512.404 565.766,583.305L565.912,583.765C575.251,613.251 594.636,636.792 619.1,651.809L702.75,491.223Z" style="fill:rgb(69,69,69);"/>
        </g>
    </g>
</svg>
