<?xml version="1.0" encoding="UTF-8" standalone="no"?>
<!DOCTYPE svg PUBLIC "-//W3C//DTD SVG 1.1//EN" "http://www.w3.org/Graphics/SVG/1.1/DTD/svg11.dtd">
<svg width="100%" height="100%" viewBox="0 0 2481 3508" version="1.1" xmlns="http://www.w3.org/2000/svg" xmlns:xlink="http://www.w3.org/1999/xlink" xml:space="preserve" xmlns:serif="http://www.serif.com/" style="fill-rule:evenodd;clip-rule:evenodd;stroke-linecap:round;stroke-linejoin:round;stroke-miterlimit:1.5;">
    <g transform="matrix(1.93377,0,0,1.93377,-1195.62,-1072.22)">
        <g transform="matrix(1,0,0,1,-94.8608,-47.4304)">
            <path d="M1360.61,856.305L1377.8,924.321C1386.29,957.922 1409.24,986.03 1440.46,1001.07C1471.69,1016.11 1507.98,1016.52 1539.54,1002.21L1603.43,973.242L1560.97,1029.09C1540,1056.67 1532.33,1092.14 1540.04,1125.93C1547.75,1159.72 1570.05,1188.35 1600.92,1204.11L1663.41,1236L1593.27,1237.62C1558.62,1238.42 1526.11,1254.54 1504.5,1281.64C1482.89,1308.73 1474.41,1344.02 1481.34,1377.97L1495.37,1446.71L1450.37,1392.89C1428.14,1366.3 1395.27,1350.93 1360.61,1350.93C1325.95,1350.93 1293.08,1366.3 1270.85,1392.89L1225.85,1446.71L1239.88,1377.97C1246.81,1344.02 1238.33,1308.73 1216.72,1281.64C1195.11,1254.54 1162.6,1238.42 1127.95,1237.62L1057.82,1236L1120.3,1204.11C1151.17,1188.35 1173.47,1159.72 1181.18,1125.93C1188.89,1092.14 1181.23,1056.67 1160.25,1029.09L1117.79,973.242L1181.68,1002.21C1213.25,1016.52 1249.53,1016.11 1280.76,1001.07C1311.98,986.03 1334.93,957.922 1343.42,924.321L1360.61,856.305Z" style="fill:rgb(250,255,0);stroke:rgb(69,69,69);stroke-width:99.71px;"/>
        </g>
        <g transform="matrix(1,0,0,1,-94.8608,-47.4304)">
            <path d="M1360.61,856.305L1377.8,924.321C1386.29,957.922 1409.24,986.03 1440.46,1001.07C1471.69,1016.11 1507.98,1016.52 1539.54,1002.21L1603.43,973.242L1560.97,1029.09C1540,1056.67 1532.33,1092.14 1540.04,1125.93C1547.75,1159.72 1570.05,1188.35 1600.92,1204.11L1663.41,1236L1593.27,1237.62C1558.62,1238.42 1526.11,1254.54 1504.5,1281.64C1482.89,1308.73 1474.41,1344.02 1481.34,1377.97L1495.37,1446.71L1450.37,1392.89C1428.14,1366.3 1395.27,1350.93 1360.61,1350.93C1325.95,1350.93 1293.08,1366.3 1270.85,1392.89L1225.85,1446.71L1239.88,1377.97C1246.81,1344.02 1238.33,1308.73 1216.72,1281.64C1195.11,1254.54 1162.6,1238.42 1127.95,1237.62L1057.82,1236L1120.3,1204.11C1151.17,1188.35 1173.47,1159.72 1181.18,1125.93C1188.89,1092.14 1181.23,1056.67 1160.25,1029.09L1117.79,973.242L1181.68,1002.21C1213.25,1016.52 1249.53,1016.11 1280.76,1001.07C1311.98,986.03 1334.93,957.922 1343.42,924.321L1360.61,856.305ZM1214.55,1200.22C1233.59,1211.24 1250.64,1225.8 1264.67,1243.39C1278.71,1260.99 1289.11,1280.86 1295.61,1301.86C1316.09,1293.85 1338.1,1289.6 1360.61,1289.6C1383.12,1289.6 1405.13,1293.85 1425.61,1301.86C1432.11,1280.86 1442.51,1260.99 1456.55,1243.39C1470.58,1225.8 1487.63,1211.24 1506.67,1200.22C1494.3,1182.04 1485.25,1161.53 1480.24,1139.58C1475.23,1117.64 1474.48,1095.23 1477.74,1073.48C1455.81,1071.82 1434.13,1066.1 1413.85,1056.33C1393.57,1046.56 1375.58,1033.18 1360.61,1017.07C1345.64,1033.18 1327.65,1046.56 1307.37,1056.33C1287.09,1066.1 1265.41,1071.82 1243.48,1073.48C1246.74,1095.23 1245.99,1117.64 1240.98,1139.58C1235.97,1161.53 1226.93,1182.04 1214.55,1200.22Z" style="fill:rgb(202,84,0);"/>
        </g>
    </g>
</svg>
