<?xml version="1.0" encoding="UTF-8" standalone="no"?>
<!DOCTYPE svg PUBLIC "-//W3C//DTD SVG 1.1//EN" "http://www.w3.org/Graphics/SVG/1.1/DTD/svg11.dtd">
<svg width="100%" height="100%" viewBox="0 0 2481 3508" version="1.1" xmlns="http://www.w3.org/2000/svg" xmlns:xlink="http://www.w3.org/1999/xlink" xml:space="preserve" xmlns:serif="http://www.serif.com/" style="fill-rule:evenodd;clip-rule:evenodd;stroke-linejoin:round;stroke-miterlimit:2;">
    <g>
        <path d="M1726.66,656.41L1726.66,1229.99C1726.66,1394.89 1632.43,1545.31 1484.05,1617.25C1384.38,1665.57 1291.89,1710.42 1291.89,1710.42C1291.89,1710.42 1197.93,1665.54 1096.72,1617.2C946.29,1545.36 850.52,1393.48 850.52,1226.78L850.52,656.41L1726.66,656.41Z" style="fill:rgb(66,108,255);"/>
        <path d="M1837.03,656.41L1837.03,1229.99C1837.03,1437.18 1718.64,1626.17 1532.2,1716.56L1340.04,1809.73C1309.83,1824.37 1274.61,1824.48 1244.32,1810.01L1049.15,1716.8C860.352,1626.62 740.151,1436.01 740.151,1226.78L740.151,656.41C740.151,595.456 789.565,546.042 850.52,546.042L1726.66,546.042C1787.62,546.042 1837.03,595.456 1837.03,656.41ZM1726.66,656.41L850.52,656.41L850.52,1226.78C850.52,1393.48 946.29,1545.36 1096.72,1617.2L1291.89,1710.42L1484.05,1617.25C1632.43,1545.31 1726.66,1394.89 1726.66,1229.99L1726.66,656.41Z" style="fill:rgb(69,69,69);"/>
        <path d="M1726.66,656.41L1726.66,1229.99C1726.66,1394.89 1632.43,1545.31 1484.05,1617.25C1384.38,1665.57 1291.89,1710.42 1291.89,1710.42L1298.47,656.41L1726.66,656.41Z" style="fill:rgb(66,84,168);"/>
    </g>
</svg>
