<?xml version="1.0" encoding="UTF-8" standalone="no"?><!DOCTYPE svg PUBLIC "-//W3C//DTD SVG 1.1//EN" "http://www.w3.org/Graphics/SVG/1.1/DTD/svg11.dtd"><svg width="100%" height="100%" viewBox="0 0 842 596" version="1.1" xmlns="http://www.w3.org/2000/svg" xmlns:xlink="http://www.w3.org/1999/xlink" xml:space="preserve" xmlns:serif="http://www.serif.com/" style="fill-rule:evenodd;clip-rule:evenodd;stroke-linecap:round;stroke-linejoin:round;stroke-miterlimit:1.5;"><g><rect x="306.059" y="342.737" width="186.827" height="124.307" style="fill:#e7e8e9;stroke:#444345;stroke-width:8.78px;"/><path d="M468.788,338.824c-0,17.997 11.491,38.369 29.489,38.369c17.997,-0 32.609,-14.612 32.609,-32.609c-0,-17.998 -14.612,-32.609 -32.609,-32.609l-199.141,-0c-17.998,-0 -32.609,14.611 -32.609,32.609c-0,17.997 14.611,32.609 32.609,32.609c17.997,-0 29.489,-20.372 29.489,-38.369" style="fill:#a2a4a7;"/><path d="M498.182,355.648c9.223,-2.448 10.078,-10.213 5.354,-17.983c-5.979,-9.836 -34.748,-13.527 -34.748,8.839c-0,17.997 11.491,30.689 29.489,30.689c17.997,-0 32.609,-14.612 32.609,-32.609c-0,-17.998 -14.612,-32.609 -32.609,-32.609l-199.141,-0c-17.998,-0 -32.609,14.611 -32.609,32.609c-0,17.997 14.611,32.609 32.609,32.609c17.997,-0 29.489,-12.692 29.489,-30.689c-0,-22.366 -28.77,-18.675 -34.749,-8.839c-4.724,7.77 -3.869,15.535 5.354,17.983" style="fill:none;stroke:#444345;stroke-width:8.78px;"/><path d="M508.784,460.641c-6.335,-0 -11.478,-4.717 -11.478,-10.526l-195.667,-0c-0,5.809 -5.144,10.526 -11.478,10.526l-0,27.531l218.623,-0l-0,-27.531Z" style="fill:#a2a4a7;stroke:#444345;stroke-width:8.78px;"/><g><circle cx="497.919" cy="344.804" r="31.526" style="fill:#ffc42c;stroke:#312f2e;stroke-width:6.66px;"/><ellipse cx="497.919" cy="344.584" rx="16.826" ry="17.12" style="fill:none;stroke:#d58828;stroke-width:2.79px;"/><path d="M513.406,325.046c1.273,-0.785 3.617,0.702 5.231,3.32c1.614,2.618 1.891,5.38 0.618,6.165c-1.273,0.785 -3.617,-0.703 -5.231,-3.32c-1.614,-2.618 -1.891,-5.38 -0.618,-6.165Z" style="fill:#fff;"/></g><g><path d="M363.713,372.513c-0,-4.535 -3.682,-8.216 -8.216,-8.216l-0.64,0c-4.534,0 -8.216,3.681 -8.216,8.216l0,56.736c0,4.534 3.682,8.216 8.216,8.216l0.64,-0c4.534,-0 8.216,-3.682 8.216,-8.216l-0,-56.736Z" style="fill:#d3d4d6;"/><path d="M408.008,372.513c-0,-4.535 -3.682,-8.216 -8.216,-8.216l-0.64,0c-4.534,0 -8.216,3.681 -8.216,8.216l0,56.736c0,4.534 3.682,8.216 8.216,8.216l0.64,-0c4.534,-0 8.216,-3.682 8.216,-8.216l-0,-56.736Z" style="fill:#d3d4d6;"/><path d="M451.028,372.513c0,-4.535 -3.681,-8.216 -8.216,-8.216l-0.639,0c-4.535,0 -8.216,3.681 -8.216,8.216l-0,56.736c-0,4.534 3.681,8.216 8.216,8.216l0.639,-0c4.535,-0 8.216,-3.682 8.216,-8.216l0,-56.736Z" style="fill:#d3d4d6;"/></g></g></svg>